<svg width="100" height="118" viewBox="0 0 100 118" fill="#222222" xmlns="http://www.w3.org/2000/svg">
<g clip-path="url(#clip0_101_2)">
<path d="M23.1224 56.9069L7.42531 48.2812V65.5744L23.1224 74.1584V56.9097V56.9069ZM73.1429 25.4093L88.884 16.7835L73.1429 8.11603L57.4019 16.7835L73.1429 25.4093V25.4093ZM100 14.7559V44.1814L76.8336 56.9069V103.244L50.0205 118L23.1195 103.244V82.3162L-9.53674e-07 69.5907L-9.53674e-07 40.1652L73.1429 0L100 14.7559V14.7559ZM92.5747 22.8747L76.8336 31.5005V48.7937L92.5747 40.168V22.8747ZM53.7112 107.812L69.4083 99.1861V35.5557L30.5917 56.9069V74.1556L53.7141 61.4719V107.809L53.7112 107.812ZM11.116 42.151L26.8571 50.8185L65.7176 29.4673L49.9766 20.8416L11.116 42.151ZM46.2859 107.854V73.6932L30.5888 82.319V99.2306L46.2859 107.856V107.854Z" fill="#222222"/>
<path d="M23.1224 56.9069L7.42531 48.2812V65.5744L23.1224 74.1584V56.9097V56.9069ZM73.1429 25.4093L88.884 16.7835L73.1429 8.11603L57.4019 16.7835L73.1429 25.4093V25.4093ZM100 14.7559V44.1814L76.8336 56.9069V103.244L50.0205 118L23.1195 103.244V82.3162L-9.53674e-07 69.5907L-9.53674e-07 40.1652L73.1429 0L100 14.7559V14.7559ZM92.5747 22.8747L76.8336 31.5005V48.7937L92.5747 40.168V22.8747ZM53.7112 107.812L69.4083 99.1861V35.5557L30.5917 56.9069V74.1556L53.7141 61.4719V107.809L53.7112 107.812ZM11.116 42.151L26.8571 50.8185L65.7176 29.4673L49.9766 20.8416L11.116 42.151ZM46.2859 107.854V73.6932L30.5888 82.319V99.2306L46.2859 107.856V107.854Z" fill="#222222"/>
<path d="M23.1224 56.9069L7.42531 48.2812V65.5744L23.1224 74.1584V56.9097V56.9069ZM73.1429 25.4093L88.884 16.7835L73.1429 8.11603L57.4019 16.7835L73.1429 25.4093V25.4093ZM100 14.7559V44.1814L76.8336 56.9069V103.244L50.0205 118L23.1195 103.244V82.3162L-9.53674e-07 69.5907L-9.53674e-07 40.1652L73.1429 0L100 14.7559V14.7559ZM92.5747 22.8747L76.8336 31.5005V48.7937L92.5747 40.168V22.8747ZM53.7112 107.812L69.4083 99.1861V35.5557L30.5917 56.9069V74.1556L53.7141 61.4719V107.809L53.7112 107.812ZM11.116 42.151L26.8571 50.8185L65.7176 29.4673L49.9766 20.8416L11.116 42.151ZM46.2859 107.854V73.6932L30.5888 82.319V99.2306L46.2859 107.856V107.854Z" fill="#222222"/>
</g>
<defs>
<linearGradient id="paint0_linear_101_2" x1="-9.53675e-07" y1="0" x2="101.831" y2="101.283" gradientUnits="userSpaceOnUse">
<stop stop-color="#222222"/>
<stop offset="1"/>
</linearGradient>
<clipPath id="clip0_101_2">
<rect width="100" height="118" fill="#222222"/>
</clipPath>
</defs>
</svg>
