<svg width="44" height="44" viewBox="0 0 44 44" fill="none" xmlns="http://www.w3.org/2000/svg">
<circle cx="22" cy="22" r="22" fill="#217e4e" opacity="0.2"/>
<path fill-rule="evenodd" clip-rule="evenodd" d="M22 13C17.0294 13 13 17.0294 13 22C13 26.9705 17.0294 31 22 31C26.9705 31 31 26.9705 31 22C31 17.0294 26.9705 13 22 13ZM14.6363 22C14.6363 26.0669 17.9331 29.3636 21.9999 29.3636C26.0668 29.3636 29.3635 26.0669 29.3635 22C29.3635 17.9332 26.0668 14.6364 21.9999 14.6364C17.9331 14.6364 14.6363 17.9332 14.6363 22ZM17.6694 21.4796C17.3499 21.7991 17.3499 22.3171 17.6694 22.6366L19.855 24.8223C20.2455 25.2128 20.8787 25.2128 21.2692 24.8223L25.769 20.3225C26.0885 20.003 26.0885 19.4849 25.769 19.1654C25.4495 18.8459 24.9315 18.8459 24.6119 19.1654L21.2692 22.5081C20.8787 22.8987 20.2455 22.8987 19.855 22.5081L18.8265 21.4796C18.507 21.16 17.989 21.16 17.6694 21.4796Z" fill="#217e4e"/>
</svg>
