<svg width="44" height="44" viewBox="0 0 44 44" fill="none" xmlns="http://www.w3.org/2000/svg">
<circle cx="22" cy="22" r="22" fill="#FFF2DF"/>
<path fill-rule="evenodd" clip-rule="evenodd" d="M21.0679 12.5451C21.0412 12.2703 21.2423 12.0245 21.5181 12.0114C21.6778 12.0038 21.8385 12 22 12C22.1615 12 22.3222 12.0038 22.4819 12.0114C22.7577 12.0245 22.9588 12.2703 22.9321 12.5451L22.8352 13.5404C22.8085 13.8152 22.5639 14.0148 22.288 14.0051C22.1925 14.0017 22.0965 14 22 14C21.9035 14 21.8075 14.0017 21.712 14.0051C21.4361 14.0148 21.1915 13.8152 21.1648 13.5404L21.0679 12.5451ZM17.5213 13.6198C17.3909 13.3763 17.482 13.0721 17.7317 12.9541C18.021 12.8174 18.3178 12.6941 18.6215 12.5851C18.8814 12.4918 19.1611 12.6424 19.2411 12.9067L19.5311 13.8637C19.6112 14.128 19.4612 14.4056 19.2024 14.5022C19.0244 14.5687 18.8493 14.6413 18.6774 14.7199C18.4263 14.8348 18.1238 14.7447 17.9934 14.5013L17.5213 13.6198ZM14.5965 15.2777C14.4108 15.4821 14.4426 15.7981 14.6559 15.9734L15.4286 16.6082C15.6419 16.7835 15.9559 16.7515 16.1441 16.5494C16.2743 16.4095 16.4095 16.2743 16.5494 16.1441C16.7515 15.9559 16.7835 15.6419 16.6082 15.4286L15.9734 14.6559C15.7981 14.4426 15.4821 14.4108 15.2777 14.5965C15.0399 14.8125 14.8125 15.0399 14.5965 15.2777ZM12.9067 19.2411C12.6424 19.1611 12.4918 18.8814 12.5851 18.6215C12.6941 18.3178 12.8174 18.0209 12.9541 17.7317C13.0721 17.482 13.3763 17.3909 13.6198 17.5213L14.5013 17.9934C14.7447 18.1238 14.8348 18.4263 14.7199 18.6774C14.6413 18.8493 14.5687 19.0244 14.5022 19.2025C14.4056 19.4612 14.128 19.6112 13.8637 19.5311L12.9067 19.2411ZM12.0114 22.4819C12.0245 22.7577 12.2703 22.9588 12.5451 22.9321L13.5404 22.8352C13.8152 22.8085 14.0148 22.5639 14.0051 22.288C14.0017 22.1925 14 22.0965 14 22C14 21.9035 14.0017 21.8075 14.0051 21.712C14.0148 21.4361 13.8152 21.1915 13.5404 21.1648L12.5451 21.0679C12.2703 21.0412 12.0245 21.2423 12.0114 21.5181C12.0038 21.6778 12 21.8385 12 22C12 22.1615 12.0038 22.3222 12.0114 22.4819ZM13.6198 26.4787C13.3763 26.6091 13.0721 26.518 12.9541 26.2683C12.8173 25.979 12.6941 25.6822 12.5851 25.3785C12.4918 25.1186 12.6424 24.8389 12.9066 24.7588L13.8637 24.4689C14.128 24.3888 14.4056 24.5388 14.5022 24.7975C14.5687 24.9756 14.6413 25.1507 14.72 25.3226C14.8348 25.5738 14.7447 25.8762 14.5013 26.0066L13.6198 26.4787ZM15.2777 29.4035C15.4821 29.5892 15.7981 29.5574 15.9734 29.3441L16.6082 28.5714C16.7835 28.3581 16.7515 28.0441 16.5494 27.8559C16.4095 27.7257 16.2743 27.5905 16.1441 27.4506C15.9559 27.2485 15.642 27.2165 15.4286 27.3918L14.6559 28.0266C14.4426 28.2019 14.4108 28.5179 14.5965 28.7223C14.8125 28.9601 15.0399 29.1875 15.2777 29.4035ZM19.2411 31.0934C19.1611 31.3577 18.8814 31.5082 18.6215 31.4149C18.3178 31.3059 18.021 31.1827 17.7317 31.0459C17.482 30.9279 17.3909 30.6237 17.5213 30.3802L17.9935 29.4987C18.1238 29.2553 18.4262 29.1652 18.6773 29.28C18.8493 29.3586 19.0244 29.4313 19.2025 29.4978C19.4612 29.5944 19.6112 29.872 19.5311 30.1363L19.2411 31.0934ZM22.4819 31.9886C22.7577 31.9755 22.9588 31.7297 22.9321 31.4549L22.8352 30.4597C22.8085 30.1848 22.5639 29.9852 22.2878 29.9949C22.1924 29.9983 22.0964 30 22 30C21.9035 30 21.8076 29.9983 21.7121 29.9949C21.4361 29.9852 21.1915 30.1848 21.1647 30.4596L21.0679 31.4548C21.0411 31.7297 21.2422 31.9755 21.5181 31.9886C21.6778 31.9962 21.8384 32 22 32C22.1615 32 22.3222 31.9962 22.4819 31.9886ZM24.7588 12.9066C24.8389 12.6424 25.1186 12.4918 25.3785 12.5851C25.6822 12.6941 25.979 12.8173 26.2683 12.9541C26.518 13.0721 26.6091 13.3763 26.4787 13.6198L26.0066 14.5013C25.8762 14.7447 25.5738 14.8348 25.3226 14.72C25.1507 14.6413 24.9756 14.5687 24.7975 14.5022C24.5388 14.4056 24.3888 14.128 24.4689 13.8637L24.7588 12.9066ZM28.7223 14.5965C28.5179 14.4108 28.2019 14.4426 28.0266 14.6559L27.3918 15.4286C27.2165 15.642 27.2485 15.9559 27.4506 16.1441C27.5905 16.2743 27.7257 16.4095 27.8559 16.5494C28.0441 16.7515 28.3581 16.7835 28.5714 16.6082L29.3441 15.9734C29.5574 15.7981 29.5892 15.4821 29.4035 15.2777C29.1875 15.0399 28.9601 14.8125 28.7223 14.5965ZM30.3802 17.5213C30.6237 17.3909 30.9279 17.482 31.0459 17.7317C31.1827 18.021 31.3059 18.3178 31.4149 18.6215C31.5082 18.8814 31.3577 19.1611 31.0934 19.2411L30.1363 19.5311C29.872 19.6112 29.5944 19.4612 29.4978 19.2025C29.4313 19.0244 29.3586 18.8493 29.28 18.6773C29.1652 18.4262 29.2553 18.1238 29.4987 17.9935L30.3802 17.5213ZM31.9886 21.5181C31.9755 21.2423 31.7297 21.0412 31.4549 21.0679L30.4597 21.1648C30.1848 21.1915 29.9852 21.4361 29.9949 21.7121C29.9983 21.8076 30 21.9036 30 22C30 22.0965 29.9983 22.1924 29.9949 22.2879C29.9852 22.5639 30.1848 22.8085 30.4596 22.8353L31.4548 22.9321C31.7297 22.9589 31.9755 22.7578 31.9886 22.4819C31.9962 22.3222 32 22.1616 32 22C32 21.8385 31.9962 21.6778 31.9886 21.5181ZM31.0934 24.7588C31.3577 24.8389 31.5082 25.1186 31.4149 25.3785C31.306 25.6822 31.1827 25.979 31.0459 26.2683C30.9279 26.518 30.6237 26.6091 30.3802 26.4787L29.4987 26.0065C29.2553 25.8762 29.1652 25.5738 29.28 25.3227C29.3586 25.1508 29.4313 24.9756 29.4978 24.7975C29.5944 24.5388 29.872 24.3888 30.1363 24.4689L31.0934 24.7588ZM29.4035 28.7223C29.5892 28.5179 29.5574 28.2019 29.3441 28.0266L28.5714 27.3918C28.3581 27.2165 28.0441 27.2485 27.8559 27.4506C27.7257 27.5905 27.5905 27.7257 27.4506 27.8559C27.2485 28.0441 27.2165 28.3581 27.3918 28.5714L28.0266 29.3441C28.2019 29.5574 28.5179 29.5892 28.7223 29.4035C28.9601 29.1875 29.1875 28.9601 29.4035 28.7223ZM26.4787 30.3802C26.6091 30.6237 26.518 30.9279 26.2683 31.0459C25.979 31.1827 25.6822 31.306 25.3785 31.4149C25.1186 31.5082 24.8389 31.3577 24.7588 31.0934L24.4689 30.1363C24.3888 29.872 24.5388 29.5944 24.7975 29.4978C24.9756 29.4313 25.1508 29.3586 25.3227 29.28C25.5738 29.1652 25.8762 29.2553 26.0065 29.4987L26.4787 30.3802ZM19 22C19 20.3431 20.3431 19 22 19C23.6569 19 25 20.3431 25 22C25 23.6569 23.6569 25 22 25C20.3431 25 19 23.6569 19 22ZM22 23C21.4477 23 21 22.5523 21 22C21 21.4477 21.4477 21 22 21C22.5523 21 23 21.4477 23 22C23 22.5523 22.5523 23 22 23ZM16 22C16 18.6863 18.6863 16 22 16C25.3137 16 28 18.6863 28 22C28 25.3137 25.3137 28 22 28C18.6863 28 16 25.3137 16 22ZM22 26C19.7909 26 18 24.2091 18 22C18 19.7909 19.7909 18 22 18C24.2091 18 26 19.7909 26 22C26 24.2091 24.2091 26 22 26Z" fill="#FFAB2B"/>
</svg>
