<svg width="31" height="26" viewBox="0 0 31 26" fill="none" xmlns="http://www.w3.org/2000/svg">
<path fill-rule="evenodd" clip-rule="evenodd" d="M4.40729 6.10386H4.36588C2.29516 6.10386 0.952637 4.75906 0.952637 3.05442C0.952637 1.31662 2.33484 0 4.44698 0C6.55739 0 7.85505 1.3133 7.89646 3.04944C7.89646 4.75408 6.55739 6.10386 4.40729 6.10386ZM30.3015 25.8962H23.815V16.7926C23.815 14.4098 22.8003 12.7831 20.5691 12.7831C18.8625 12.7831 17.9134 13.8808 17.4716 14.9388C17.3258 15.2731 17.3284 15.7231 17.3311 16.187V16.187V16.1872C17.3315 16.2501 17.3319 16.3133 17.3319 16.3764V25.8962H10.9057C10.9057 25.8962 10.9886 9.77013 10.9057 8.30428H17.3319V11.0652C17.7115 9.85802 19.765 8.13514 23.0419 8.13514C27.1074 8.13514 30.3015 10.6656 30.3015 16.1144V25.8962ZM7.41321 8.30437H1.69284V25.8963H7.41321V8.30437Z" fill="#007EBB"/>
</svg>
