<svg width="31" height="36" viewBox="0 0 31 36" fill="none" xmlns="http://www.w3.org/2000/svg">
<path fill-rule="evenodd" clip-rule="evenodd" d="M25.7143 15.4286C28.5547 15.4286 30.8571 17.731 30.8571 20.5714V30.8571C30.8571 33.6975 28.5547 36 25.7143 36H5.14286C2.30254 36 0 33.6975 0 30.8571V20.5714C0 17.731 2.30254 15.4286 5.14286 15.4286V10.2857C5.14286 4.60507 9.74793 0 15.4286 0C21.1092 0 25.7143 4.60507 25.7143 10.2857V15.4286ZM15.4287 3.42847C19.2157 3.42847 22.2858 6.49851 22.2858 10.2856V15.4285H8.57153V10.2856C8.57153 6.49851 11.6416 3.42847 15.4287 3.42847ZM25.7142 18.8573H5.14275C4.19599 18.8573 3.42847 19.6248 3.42847 20.5716V30.8573C3.42847 31.8041 4.19599 32.5716 5.14275 32.5716H25.7142C26.661 32.5716 27.4285 31.8041 27.4285 30.8573V20.5716C27.4285 19.6248 26.661 18.8573 25.7142 18.8573Z" fill="#232227"/>
</svg>
