<svg width="36" height="29" viewBox="0 0 36 29" fill="none" xmlns="http://www.w3.org/2000/svg">
<path fill-rule="evenodd" clip-rule="evenodd" d="M0.01954 1.99994C0.01954 0.895379 0.91496 -6.10352e-05 2.01954 -6.10352e-05H34C35.1046 -6.10352e-05 36 0.895379 36 1.99994V24.6484C36 26.8576 34.2092 28.6484 32 28.6484H4C1.79086 28.6484 0 26.8576 0 24.6484V2.64838C0 2.55314 0.00666 2.45946 0.01954 2.36776V1.99994ZM4.00012 6.44745V24.6483H32.0001V6.44813L22.2431 16.2051C19.8999 18.5483 16.1009 18.5483 13.7578 16.2051L4.00012 6.44745ZM7.14478 3.93524H28.8561L19.4147 13.3768C18.6337 14.1578 17.3673 14.1578 16.5863 13.3768L7.14478 3.93524Z" fill="#232227"/>
</svg>
