<svg width="44" height="44" viewBox="0 0 44 44" fill="none" xmlns="http://www.w3.org/2000/svg">
<circle cx="22" cy="22" r="22" fill="#092f9e" opacity="0.2"/>
<path fill-rule="evenodd" clip-rule="evenodd" d="M16.9091 14C15.3024 14 14 15.3024 14 16.9091V27.0909C14 28.6975 15.3024 30 16.9091 30H27.0909C28.6975 30 30 28.6975 30 27.0909V16.9091C30 15.3024 28.6975 14 27.0909 14H16.9091ZM27.0909 15.4545H16.9091C16.1058 15.4545 15.4545 16.1058 15.4545 16.9091V27.0909C15.4545 27.8943 16.1058 28.5455 16.9091 28.5455H27.0909C27.8943 28.5455 28.5455 27.8943 28.5455 27.0909V16.9091C28.5455 16.1058 27.8943 15.4545 27.0909 15.4545ZM18.1506 21.5374C17.8666 21.8214 17.8666 22.2819 18.1506 22.5659L20.0148 24.4301C20.4053 24.8206 21.0385 24.8207 21.429 24.4301L25.3503 20.5089C25.6343 20.2249 25.6343 19.7644 25.3503 19.4804C25.0662 19.1964 24.6058 19.1964 24.3217 19.4804L21.429 22.3731C21.0385 22.7636 20.4053 22.7636 20.0148 22.3731L19.1791 21.5374C18.8951 21.2534 18.4346 21.2534 18.1506 21.5374Z" fill="#092f9e"/>
</svg>
