<svg width="24" height="20" viewBox="0 0 24 20" fill="none" xmlns="http://www.w3.org/2000/svg">
<path d="M23.3876 2.42734C22.5288 2.80866 21.6042 3.06653 20.6343 3.18175C21.6248 2.5892 22.3848 1.64961 22.7429 0.530343C21.8155 1.079 20.7906 1.47816 19.6959 1.69213C18.8233 0.760781 17.5763 0.179199 16.1962 0.179199C13.5498 0.179199 11.4028 2.32584 11.4028 4.97313C11.4028 5.34897 11.4439 5.71383 11.5262 6.06497C7.54087 5.86471 4.00824 3.95811 1.64172 1.05432C1.22878 1.76483 0.99281 2.5892 0.99281 3.46706C0.99281 5.1295 1.83927 6.59717 3.12611 7.4572C2.34138 7.43388 1.60056 7.21579 0.953026 6.85916V6.91814C0.953026 9.24172 2.60616 11.1799 4.8012 11.6188C4.39923 11.7313 3.97531 11.7875 3.53768 11.7875C3.229 11.7875 2.92718 11.7587 2.63497 11.7025C3.24546 13.6063 5.01521 14.9931 7.11421 15.0301C5.47342 16.3167 3.4046 17.0835 1.15881 17.0835C0.771935 17.0835 0.389176 17.0615 0.0146484 17.0176C2.13697 18.3756 4.65852 19.1698 7.36527 19.1698C16.1866 19.1698 21.0088 11.8657 21.0088 5.53003C21.0088 5.32153 21.0047 5.11304 20.9964 4.90867C21.9334 4.23244 22.747 3.38887 23.3876 2.42734Z" fill="#00AAEC"/>
</svg>
