<svg width="19" height="19" viewBox="0 0 19 19" fill="none" xmlns="http://www.w3.org/2000/svg">
<path d="M6.70144 16.2569C5.10056 16.2569 3.6573 15.2926 3.04457 13.8136C2.43184 12.3346 2.77028 10.6322 3.9021 9.50002L5.58202 7.8201L6.70144 8.93952L5.02231 10.6186C4.42228 11.2187 4.18794 12.0932 4.40757 12.9129C4.62719 13.7326 5.26742 14.3728 6.08709 14.5924C6.90675 14.8121 7.78132 14.5777 8.38135 13.9777L10.0605 12.2986L11.1799 13.4188L9.50077 15.0979C8.75983 15.8425 7.75187 16.2598 6.70144 16.2569ZM7.26115 12.8583L6.14173 11.7388L11.7396 6.14097L12.859 7.26039L7.26194 12.8575L7.26115 12.8583ZM13.4195 11.1791L12.2993 10.0597L13.9784 8.3806C14.5866 7.78236 14.8273 6.90388 14.6088 6.07921C14.3903 5.25454 13.7463 4.6104 12.9217 4.39174C12.0971 4.17308 11.2186 4.41349 10.6202 5.02156L8.94027 6.70068L7.82085 5.58127L9.50077 3.90135C11.0485 2.36707 13.5454 2.37254 15.0864 3.91358C16.6275 5.45462 16.6329 7.95145 15.0986 9.49922L13.4195 11.1783V11.1791Z" fill="#2E3A59"/>
</svg>
