<svg width="9" height="9" viewBox="0 0 9 9" fill="none" xmlns="http://www.w3.org/2000/svg">
<path fill-rule="evenodd" clip-rule="evenodd" d="M2.16665 0.833374C1.43027 0.833374 0.833313 1.43033 0.833313 2.16671V6.83337C0.833313 7.56974 1.43027 8.16671 2.16665 8.16671H6.83331C7.56968 8.16671 8.16665 7.56974 8.16665 6.83337V2.16671C8.16665 1.43033 7.56968 0.833374 6.83331 0.833374H2.16665ZM6.83331 1.50004H2.16665C1.79846 1.50004 1.49998 1.79852 1.49998 2.16671V6.83337C1.49998 7.20157 1.79846 7.50004 2.16665 7.50004H6.83331C7.20151 7.50004 7.49998 7.20157 7.49998 6.83337V2.16671C7.49998 1.79852 7.20151 1.50004 6.83331 1.50004ZM2.73568 4.28801C2.60551 4.41818 2.6055 4.62923 2.73568 4.75941L3.20707 5.23082C3.5976 5.62135 4.23077 5.62135 4.6213 5.23083L6.03551 3.81661C6.16569 3.68644 6.16569 3.47539 6.03551 3.34521C5.90534 3.21504 5.69428 3.21503 5.56411 3.34521L4.38559 4.52373C4.12524 4.78408 3.70313 4.78408 3.44278 4.52372L3.20708 4.28802C3.07691 4.15784 2.86585 4.15784 2.73568 4.28801Z" fill="#3E64FF"/>
</svg>
