<svg width="50" height="50" viewBox="0 0 50 50" fill="none" xmlns="http://www.w3.org/2000/svg">
<path fill-rule="evenodd" clip-rule="evenodd" d="M49.3979 25.4556C49.3979 39.0024 38.416 49.9844 24.8691 49.9844H2.77775C0.610589 49.9844 -0.474732 47.3423 1.05768 45.797L5.85808 40.9565C2.40895 36.7314 0.340332 31.3351 0.340332 25.4556C0.340332 11.9087 11.3222 0.926758 24.8691 0.926758C38.416 0.926758 49.3979 11.9087 49.3979 25.4556ZM32.7358 17.5889C33.6937 18.5468 33.6937 20.0999 32.7358 21.0578L28.338 25.4556L32.7358 29.8533C33.6937 30.8112 33.6937 32.3643 32.7358 33.3222C31.7779 34.2801 30.2248 34.2801 29.2669 33.3222L24.8691 28.9244L20.4714 33.3222C19.5135 34.2801 17.9604 34.2801 17.0025 33.3222C16.0446 32.3643 16.0446 30.8112 17.0025 29.8533L21.4002 25.4556L17.0025 21.0578C16.0446 20.0999 16.0446 18.5468 17.0025 17.5889C17.9604 16.631 19.5135 16.631 20.4714 17.5889L24.8691 21.9867L29.2669 17.5889C30.2248 16.631 31.7779 16.631 32.7358 17.5889Z" fill="#EB5757"/>
</svg>
