<svg width="24" height="24" viewBox="0 0 24 24" fill="none" xmlns="http://www.w3.org/2000/svg">
<path fill-rule="evenodd" clip-rule="evenodd" d="M6 9C5.44772 9 5 8.55228 5 8C5 7.44772 5.44772 7 6 7H12C12.5523 7 13 7.44772 13 8C13 8.55228 12.5523 9 12 9H6ZM6 17C5.44772 17 5 16.5523 5 16C5 15.4477 5.44772 15 6 15H12C12.5523 15 13 15.4477 13 16C13 16.5523 12.5523 17 12 17H6ZM5 11.9999C5 12.5522 5.44771 12.9999 6 12.9999H14.9999V14.7722C14.9999 15.2155 15.5341 15.4395 15.8503 15.1288L18.708 12.3211C18.9074 12.1251 18.9074 11.8037 18.708 11.6077L15.8503 8.80008C15.5341 8.48938 14.9999 8.71341 14.9999 9.15674V10.9999H6C5.44772 10.9999 5 11.4476 5 11.9999Z" fill="white"/>
</svg>
